<?xml version="1.0" encoding="UTF-8"?>
<!DOCTYPE svg PUBLIC "-//W3C//DTD SVG 1.1//EN" "http://www.w3.org/Graphics/SVG/1.1/DTD/svg11.dtd">
<svg xmlns="http://www.w3.org/2000/svg" version="1.1" width="225px" height="225px" style="shape-rendering:geometricPrecision; text-rendering:geometricPrecision; image-rendering:optimizeQuality; fill-rule:evenodd; clip-rule:evenodd" xmlns:xlink="http://www.w3.org/1999/xlink">
<g><path style="opacity:1" fill="#027764" d="M -0.5,-0.5 C 74.5,-0.5 149.5,-0.5 224.5,-0.5C 224.5,74.5 224.5,149.5 224.5,224.5C 149.5,224.5 74.5,224.5 -0.5,224.5C -0.5,149.5 -0.5,74.5 -0.5,-0.5 Z"/></g>
<g><path style="opacity:1" fill="#fafcfc" d="M 98.5,57.5 C 96.5583,52.9443 95.8917,47.9443 96.5,42.5C 106.804,39.8453 117.137,37.1787 127.5,34.5C 138.018,37.784 148.684,40.4507 159.5,42.5C 159.5,47.8333 159.5,53.1667 159.5,58.5C 148.896,55.8904 138.396,52.8904 128,49.5C 118.17,52.2487 108.337,54.9154 98.5,57.5 Z"/></g>
<g><path style="opacity:1" fill="#6fa69d" d="M 96.5,42.5 C 95.8917,47.9443 96.5583,52.9443 98.5,57.5C 97.791,58.404 96.791,58.7373 95.5,58.5C 95.1786,52.9738 95.5119,47.6405 96.5,42.5 Z"/></g>
<g><path style="opacity:1" fill="#fdfefd" d="M 128.5,154.5 C 128.833,132.157 128.5,109.823 127.5,87.5C 126.893,87.6236 126.56,87.9569 126.5,88.5C 116.495,90.8354 106.495,93.1687 96.5,95.5C 95.8761,85.7366 96.5427,76.2366 98.5,67C 107.989,64.4195 117.489,61.9195 127,59.5C 137.785,62.4047 148.618,65.0713 159.5,67.5C 159.833,99.5069 159.5,131.507 158.5,163.5C 148.471,160.494 138.471,157.494 128.5,154.5 Z"/></g>
<g><path style="opacity:1" fill="#dbe8cd" d="M 126.5,88.5 C 126.56,87.9569 126.893,87.6236 127.5,87.5C 128.5,109.823 128.833,132.157 128.5,154.5C 128.167,154.5 127.833,154.5 127.5,154.5C 127.831,132.327 127.497,110.327 126.5,88.5 Z"/></g>
<g><path style="opacity:1" fill="#c9cf03" d="M 94.5,95.5 C 96.4727,117.603 97.1394,139.936 96.5,162.5C 106.966,160.3 117.299,157.634 127.5,154.5C 127.5,163.5 127.5,172.5 127.5,181.5C 117.044,184.262 106.544,186.928 96,189.5C 85.4983,186.75 74.9983,184.083 64.5,181.5C 64.1668,150.16 64.5002,118.826 65.5,87.5C 75.107,90.4207 84.7737,93.0873 94.5,95.5 Z"/></g>
<g><path style="opacity:1" fill="#67af20" d="M 126.5,88.5 C 127.497,110.327 127.831,132.327 127.5,154.5C 117.299,157.634 106.966,160.3 96.5,162.5C 97.1394,139.936 96.4727,117.603 94.5,95.5C 95.1667,95.5 95.8333,95.5 96.5,95.5C 106.495,93.1687 116.495,90.8354 126.5,88.5 Z"/></g>
</svg>
