<?xml version="1.0" standalone="no"?>
<!DOCTYPE svg PUBLIC "-//W3C//DTD SVG 20010904//EN"
 "http://www.w3.org/TR/2001/REC-SVG-20010904/DTD/svg10.dtd">
<svg version="1.0" xmlns="http://www.w3.org/2000/svg"
 width="150.000000pt" height="150.000000pt" viewBox="0 0 150.000000 150.000000"
 preserveAspectRatio="xMidYMid meet">

<g transform="translate(0.000000,150.000000) scale(0.100000,-0.100000)"
fill="#000000" stroke="none">
<path d="M763 1329 l-123 -40 0 -58 0 -58 125 38 125 39 120 -29 120 -28 0 57
0 58 -107 26 c-60 15 -115 29 -123 31 -8 2 -70 -14 -137 -36z"/>
<path d="M753 1132 l-113 -36 0 -113 c0 -85 3 -111 13 -108 6 2 55 16 107 30
52 14 103 28 112 31 16 5 18 -14 20 -262 l3 -268 115 -27 c63 -16 116 -28 118
-29 1 0 1 172 0 382 l-3 383 -115 27 c-63 15 -122 27 -130 27 -8 -1 -66 -17
-127 -37z"/>
</g>
</svg>
